PathFileType	4	(X/Y/Z)	6_coords_data.trc
DataRate	CameraRate	NumFrames	NumMarkers	Units	OrigDataRate	OrigDataStartFrame	OrigNumFrames
30.0	30.0	8	21	m	30.0	52	82
Frame#	Time	THUMB_TIP	THUMB_IP	THUMB_MCP	THUMB_CMC	INDEX_TIP	INDEX_DIP	INDEX_PIP	INDEX_MCP	MIDDLE_TIP	MIDDLE_DIP	MIDDLE_PIP	MIDDLE_MCP	RING_TIP	RING_DIP	RING_PIP	RING_MCP	PINKY_TIP	PINKY_DIP	PINKY_PIP	PINKY_MCP	WRIST
X1	Y1	Z1	X2	Y2	Z2	X3	Y3	Z3	X4	Y4	Z4	X5	Y5	Z5	X6	Y6	Z6	X7	Y7	Z7	X8	Y8	Z8	X9	Y9	Z9	X10	Y10	Z10	X11	Y11	Z11	X12	Y12	Z12	X13	Y13	Z13	X14	Y14	Z14	X15	Y15	Z15	X16	Y16	Z16	X17	Y17	Z17	X18	Y18	Z18	X19	Y19	Z19	X20	Y20	Z20	X21	Y21	Z21
50	1.6999999999999926	0.5092819248811389	-0.013416363853703372	-0.16474686518768716	0.5050646509969856	-0.017997965505976987	-0.1426284672509937	0.4861496173536425	-0.025601547440717187	-0.11910768826659596	0.4789262876920546	-0.026169000838286216	-0.07509187854734156	0.563664206606006	-0.01065027897264248	-0.11784753735712078	0.5577003849785375	0.004393481569180402	-0.12597884108752183	0.5392854736795688	0.0204943533973726	-0.1317808063772529	0.49982116800648413	0.017588496396857445	-0.11604039129905691	0.562127728072993	-0.010595972809699705	-0.09963599580650123	0.563106097932309	0.006717983489638146	-0.10485803656495984	0.5464315810596694	0.03021821937798752	-0.10922941509535417	0.5036651130479377	0.03145421615621924	-0.09635892766224835	0.5542466572587279	-0.009555169753606707	-0.08280746066564232	0.5592961032643282	0.007631988711337412	-0.0848334613905744	0.5499912696656803	0.03072008901959833	-0.08556808704841518	0.5112019494077259	0.035902324921241235	-0.07540669447723763	0.5465873769632172	-0.00941290780280657	-0.06802934809595551	0.5550912470449754	0.005395254014364359	-0.06684506044970512	0.5494962246151915	0.025310617234177046	-0.06325534586033388	0.5148010890931813	0.028893548747275455	-0.0540741899482603	0.4622830810018608	-0.023011742144276925	-0.051989820119430985
51	1.7333333333333258	0.5115885102733755	-0.013944419874243108	-0.16380635670994625	0.5068863045092854	-0.018396502393573377	-0.14175940176843038	0.48727401759518374	-0.025834141733133476	-0.11876245146945397	0.47919686502408576	-0.026180112499524122	-0.07489298702581149	0.5706462064103301	-0.004730143561739619	-0.12288395714048506	0.5606806499369669	0.009009390194443023	-0.12920162255889117	0.5396401128552244	0.02235541429126542	-0.13254665964670545	0.5008740496503548	0.017112038147006348	-0.115714088713961	0.5713664198092845	-0.0045299438260179015	-0.10279611178360853	0.5674811962749367	0.012615377175652975	-0.10714846813825268	0.5469697147514335	0.03317205937734036	-0.10962061145323754	0.5044622265361965	0.03111881203500666	-0.09601746689094265	0.5636685494734477	-0.005922438939764296	-0.0845978195905186	0.5642088228050778	0.012060128525652303	-0.08575340259440306	0.5509843365187119	0.03315572070150308	-0.08523481584958126	0.5119229381098942	0.03543790389231094	-0.07505053245646931	0.5528990239912503	-0.007889273219810033	-0.06831982513166229	0.5584404867862403	0.00817027440347573	-0.06622623485962653	0.5502459860703426	0.027047304204663503	-0.06206451371300742	0.5152111148199584	0.02849184387035375	-0.05361735131233952	0.4622830810018609	-0.023011742144276925	-0.051989820119430985
52	1.7666666666666588	0.5141489220293813	-0.014708862132125855	-0.1627049730441853	0.5088795196585741	-0.018972734285921056	-0.14074927235141257	0.48850488218130783	-0.02617922222341096	-0.11834925718898942	0.479507531650762	-0.02619726439015413	-0.07465786950319142	0.5757904690494904	0.001930072756589074	-0.1278025627414594	0.5627961788724412	0.013759575153660886	-0.1321856319665935	0.5399111080021242	0.02412190921116375	-0.13313715555604372	0.5019462889267958	0.01663345775028735	-0.11535425080750261	0.5789863329493672	0.002886211938637251	-0.10594189185613245	0.5708655941662002	0.018746648109901787	-0.10918228783082695	0.5473355141144345	0.035931108427070035	-0.10984501429413152	0.5052900241715443	0.030769056649405768	-0.09564367921932099	0.5721629306074882	-0.0006602391675792907	-0.08617595056725547	0.5683107757642958	0.016949924319832776	-0.08638342348280975	0.5518055747331573	0.0355286973032215	-0.08477484884872738	0.5126613894780273	0.03495325582066766	-0.07466928296589659	0.5588328425143554	-0.005666838197339041	-0.06821530998428621	0.5613224921828001	0.011020067274645773	-0.06532587573214377	0.5508647689216974	0.028648122918691343	-0.06077618372008109	0.5156142021136318	0.02808679977992412	-0.05316264925545866	0.462283081001861	-0.023011742144276925	-0.051989820119430985
53	1.7999999999999918	0.5167683122128973	-0.01562309137501583	-0.16151735416855773	0.5108802298893218	-0.019663286639457045	-0.13967685717842526	0.48975307098158716	-0.02658063122665577	-0.11789123117527162	0.47984031071904176	-0.02620496212670631	-0.07440001301913524	0.5792057982557879	0.008839703441637425	-0.13236004211650065	0.5640620939594396	0.018460972519597774	-0.13482973876067572	0.5400548008203789	0.025814844417039406	-0.13357264797189847	0.5029715271556061	0.016216769812926413	-0.11496233168771236	0.5846760155825457	0.01096552830742581	-0.10884244650542435	0.5731972936626397	0.02482578331570695	-0.11087524609979887	0.5474883370667253	0.03852117729493221	-0.10992905135071868	0.5060672759980608	0.030457727627066444	-0.09525170825328566	0.5791960665085385	0.00584085686803637	-0.08745974354313646	0.5714879739428343	0.02212229212613004	-0.08675251307501164	0.5523664249356818	0.03787711676936045	-0.0842361977076298	0.5133252369050174	0.034524645454572456	-0.07427289467912379	0.5641054074023506	-0.002804781435676751	-0.06777441564045811	0.5636636246427911	0.013935285915641415	-0.06422829479273023	0.5512902299293199	0.03021757200747055	-0.059474529770301876	0.5159509734515243	0.02774155811419976	-0.05270033182538514	0.4622830810018609	-0.023011742144276925	-0.051989820119430985
54	1.8333333333333253	0.5194022953167834	-0.016608552894039508	-0.160226011437357	0.5128532432510147	-0.02039425775316983	-0.1385285840377916	0.49099737354673323	-0.02701198246890879	-0.11737801243662288	0.4802171865259225	-0.026205189184931865	-0.07409953450135726	0.5812484168388092	0.015505532423006896	-0.13629477435531917	0.5647069365729014	0.022846802880769457	-0.1369913220410995	0.5401820937120616	0.027352537926689124	-0.13379128026838905	0.5039864138699864	0.015831954965505157	-0.11453550131752677	0.5886250503073069	0.018971172354798282	-0.11129982547729772	0.5747470366036924	0.030571645741690245	-0.11221073317970154	0.5475545483369633	0.04078878593680879	-0.10984680041900619	0.5068356353754127	0.030141674162356913	-0.09485490063639007	0.5846428427920143	0.012893994456151359	-0.08835761575371875	0.5738367684787706	0.027243695249438926	-0.08683615425904312	0.5527349357714428	0.04007162222120708	-0.08362104539635562	0.5139490449262931	0.03411809074891681	-0.07387779294367902	0.5685642458998683	0.00028957052120859306	-0.06702355276661104	0.5655509850289291	0.016655821786314196	-0.06301530147070966	0.5515806387920041	0.0315768137357072	-0.05821890237695343	0.5162493899307808	0.027428354877923944	-0.05227107974916767	0.4622830810018608	-0.023011742144276925	-0.051989820119430985
55	1.8666666666666587	0.5219297124773636	-0.01746802496530042	-0.15889488493302498	0.5147429437436418	-0.02100440121582814	-0.13735783782385275	0.49224770527937844	-0.027379201507898965	-0.11681164188221593	0.4806311427986122	-0.02619397032664461	-0.07375887538368026	0.5821049925755752	0.021917257702039117	-0.1396391061039971	0.564743734392668	0.02699789663943475	-0.13875943440713875	0.5401476328155967	0.028867789174939706	-0.13390710279068258	0.5048721411705847	0.015524366622942876	-0.11412759678568962	0.5910415417831585	0.02668207138183165	-0.11332923982694293	0.5754900431684107	0.0359634505251768	-0.11324622155799563	0.5474114683144029	0.04292914885819932	-0.10971320147579794	0.5074823019704413	0.029887740662043916	-0.09449047936910865	0.5885356948798881	0.020202061978002006	-0.088908431792241	0.5753851906836078	0.0323415493747079	-0.08674115582254194	0.5528390520706143	0.04223595951666537	-0.08300588333095421	0.5144532800684499	0.033795500014158986	-0.07351841869679548	0.5722333038815288	0.0035352225377104363	-0.06608915138818694	0.5670076434181944	0.019261100858522617	-0.06180088556609187	0.5517035962796415	0.032842056307970324	-0.05709388978735247	0.5164604881632946	0.027202250717443754	-0.051897797582573735	0.4622830810018609	-0.023011742144276925	-0.051989820119430985
56	1.8999999999999915	0.524228686444088	-0.017970082592922876	-0.1575965196040457	0.516504320285114	-0.021317982800491797	-0.13621602074077654	0.49351382064844707	-0.027612375852546056	-0.11620008852259917	0.4810688553233542	-0.026156905492637716	-0.07338777202268681	0.5819985034542304	0.02785095996828224	-0.14237795393337346	0.5642759882487512	0.030850060357544673	-0.14016033096120553	0.5399132190391676	0.030387631119346392	-0.1339755537913943	0.5055962875093021	0.01532563199576864	-0.11374882675077108	0.5923011024551602	0.03400001481297943	-0.1150478988456139	0.575602910700675	0.04094177026376544	-0.11405672610994894	0.5470793098212228	0.044909241365967634	-0.10957644532378152	0.5079959795235598	0.02970727534317874	-0.09416406579024528	0.591110269867279	0.027488010451344524	-0.0892092369559141	0.5762040724391526	0.037270536808354904	-0.08654325565288168	0.5526777820122883	0.04433706057740927	-0.08244961673717066	0.5148142919631435	0.033576946846939904	-0.07321398423009878	0.5751824066596467	0.006769499142899038	-0.06510740203304083	0.5680812902769403	0.021706485986653368	-0.06069598841054186	0.5516793192689062	0.033995848743758716	-0.05613979163297805	0.5165717664567117	0.02708056375153911	-0.05160966801266087	0.4622830810018609	-0.023011742144276925	-0.051989820119430985
57	1.9333333333333247	0.5262629041966762	-0.018051713652531776	-0.15638509136054202	0.5180896026785841	-0.021284330146531416	-0.13515428042697009	0.49473828833863265	-0.02765879180553632	-0.11558638945337119	0.48149292646144426	-0.02607970897790446	-0.07301930256495698	0.5813136171124544	0.03306905552883732	-0.14446136500369175	0.5635425442395412	0.03421695860469509	-0.14116420145390457	0.5395714768263458	0.03176586670119519	-0.1339955259449531	0.5061605122456179	0.015216672938272557	-0.11341719448726229	0.5926752217134794	0.04053407933466058	-0.11635250276124859	0.5752947883224918	0.045329398645843066	-0.11464210869985819	0.5466498334761605	0.04664273283959275	-0.10943142111114457	0.5083954656751738	0.02957806281452413	-0.09388959682689935	0.5926011730866286	0.03425165334080715	-0.08929664604844023	0.5764732723976385	0.04172439923834159	-0.08628850906403335	0.5523592174385599	0.046197262373230186	-0.08196579836273804	0.5150631500720306	0.03343422024904508	-0.07297530623340509	0.5775583143177991	0.009851538289929906	-0.06419921296152875	0.5688425148152496	0.023887543035921888	-0.059724237006080094	0.5515798678416518	0.03500935507182035	-0.05535178511919997	0.5166326922423844	0.02701240490423995	-0.05139866525620351	0.4622830810018608	-0.023011742144276925	-0.051989820119430985
